<svg width="1200" height="400" viewBox="0 0 1200 400" fill="none" xmlns="http://www.w3.org/2000/svg">
  <rect width="1200" height="400" fill="#0F172A"/>
  <path d="M100 200C100 144.772 144.772 100 200 100C255.228 100 300 144.772 300 200C300 255.228 255.228 300 200 300C144.772 300 100 255.228 100 200Z" fill="#FACC15"/>
  <path d="M200 200L300 150C290 120 260 100 220 100C170 100 120 140 120 190C120 240 160 280 210 280C250 280 285 260 300 230L200 200Z" fill="#0F172A"/>
  <circle cx="220" cy="150" r="12" fill="#0F172A"/>

  <circle cx="400" cy="200" r="10" fill="#FACC15" opacity="0.8"/>
  <circle cx="500" cy="200" r="10" fill="#FACC15" opacity="0.6"/>
  <circle cx="600" cy="200" r="10" fill="#FACC15" opacity="0.4"/>

  <text x="700" y="230" fill="white" style="font-family: 'JetBrains Mono', monospace; font-size: 120px; font-weight: bold;">PacOS</text>
  <text x="705" y="270" fill="#FACC15" style="font-family: 'Inter', sans-serif; font-size: 24px; letter-spacing: 0.2em;">THE INTERACTIVE PORTFOLIO</text>

  <rect x="0" y="0" width="1200" height="400" stroke="#FACC15" stroke-width="4" stroke-opacity="0.1"/>
</svg>
